<svg width="20" height="20" viewBox="0 0 20 20" fill="none" xmlns="http://www.w3.org/2000/svg">
<path d="M3.70889 11.5902L9.50274 17.0329C9.64789 17.1692 9.72046 17.2374 9.79938 17.272C9.92726 17.328 10.0727 17.328 10.2006 17.272C10.2795 17.2374 10.3521 17.1692 10.4973 17.0329L16.2911 11.5902C17.9212 10.0588 18.1192 7.53881 16.7482 5.7717L16.4904 5.43943C14.8502 3.32546 11.558 3.67999 10.4056 6.09469C10.2428 6.43578 9.75724 6.43578 9.59444 6.09469C8.44197 3.67999 5.14977 3.32547 3.50962 5.43943L3.25182 5.7717C1.88079 7.53881 2.07875 10.0588 3.70889 11.5902Z" stroke="black" stroke-width="2"/>
</svg>
